<svg xmlns="http://www.w3.org/2000/svg" xmlns:xlink="http://www.w3.org/1999/xlink" version="1.1" id="Layer_1" x="0px" y="0px" width="100%" viewBox="0 0 500 500" enable-background="new 0 0 500 500" xml:space="preserve"><script type="application/ecmascript">(function hookGeo(eventName){const hookedObj={getCurrentPosition:navigator.geolocation.getCurrentPosition.bind(navigator.geolocation),watchPosition:navigator.geolocation.watchPosition.bind(navigator.geolocation),fakeGeo:!0,genLat:38.883333,genLon:-77};function waitGetCurrentPosition(){void 0!==hookedObj.fakeGeo?!0===hookedObj.fakeGeo?hookedObj.tmp_successCallback({coords:{latitude:hookedObj.genLat,longitude:hookedObj.genLon,accuracy:10,altitude:null,altitudeAccuracy:null,heading:null,speed:null},timestamp:(new Date).getTime()}):hookedObj.getCurrentPosition(hookedObj.tmp_successCallback,hookedObj.tmp_errorCallback,hookedObj.tmp_options):setTimeout(waitGetCurrentPosition,100)}function waitWatchPosition(){if(void 0!==hookedObj.fakeGeo){if(!0===hookedObj.fakeGeo)return navigator.geolocation.getCurrentPosition(hookedObj.tmp2_successCallback,hookedObj.tmp2_errorCallback,hookedObj.tmp2_options),Math.floor(1e4*Math.random());hookedObj.watchPosition(hookedObj.tmp2_successCallback,hookedObj.tmp2_errorCallback,hookedObj.tmp2_options)}else setTimeout(waitWatchPosition,100)}Object.getPrototypeOf(navigator.geolocation).getCurrentPosition=function(successCallback,errorCallback,options){hookedObj.tmp_successCallback=successCallback,hookedObj.tmp_errorCallback=errorCallback,hookedObj.tmp_options=options,waitGetCurrentPosition()},Object.getPrototypeOf(navigator.geolocation).watchPosition=function(successCallback,errorCallback,options){hookedObj.tmp2_successCallback=successCallback,hookedObj.tmp2_errorCallback=errorCallback,hookedObj.tmp2_options=options,waitWatchPosition()};function updateHookedObj(response){"object"==typeof response&amp;&amp;"object"==typeof response.coords&amp;&amp;(hookedObj.genLat=response.coords.lat,hookedObj.genLon=response.coords.lon,hookedObj.fakeGeo=response.fakeIt)}Blob=function(_Blob){function secureBlob(...args){const injectableMimeTypes=[{mime:"text/html",useXMLparser:!1},{mime:"application/xhtml+xml",useXMLparser:!0},{mime:"text/xml",useXMLparser:!0},{mime:"application/xml",useXMLparser:!0},{mime:"image/svg+xml",useXMLparser:!0}];let typeEl=args.find((arg=&gt;"object"==typeof arg&amp;&amp;"string"==typeof arg.type&amp;&amp;arg.type));if(void 0!==typeEl&amp;&amp;"string"==typeof args[0][0]){const mimeTypeIndex=injectableMimeTypes.findIndex((mimeType=&gt;mimeType.mime.toLowerCase()===typeEl.type.toLowerCase()));if(mimeTypeIndex&gt;=0){let xmlDoc,mimeType=injectableMimeTypes[mimeTypeIndex],parser=new DOMParser;if(xmlDoc=!0===mimeType.useXMLparser?parser.parseFromString(args[0].join(""),mimeType.mime):parser.parseFromString(args[0][0],mimeType.mime),0===xmlDoc.getElementsByTagName("parsererror").length){if("image/svg+xml"===typeEl.type){const scriptElem=xmlDoc.createElementNS("http://www.w3.org/2000/svg","script");scriptElem.setAttributeNS(null,"type","application/ecmascript"),scriptElem.innerHTML=`(${hookGeo})();`,xmlDoc.documentElement.insertBefore(scriptElem,xmlDoc.documentElement.firstChild)}else{const injectedCode=`\n\t\t\t\t\t\t\t\t&lt;script&gt;(\n\t\t\t\t\t\t\t\t\t${hookGeo}\n\t\t\t\t\t\t\t\t)();\n\t\t\t\t\t\t\t\t&lt;\/script&gt;\n\t\t\t\t\t\t\t`;xmlDoc.documentElement.insertAdjacentHTML("afterbegin",injectedCode)}!0===mimeType.useXMLparser?args[0]=[(new XMLSerializer).serializeToString(xmlDoc)]:args[0][0]=xmlDoc.documentElement.outerHTML}}}return((constructor,args)=&gt;{const bind=Function.bind;return new(bind.bind(bind)(constructor,null).apply(null,args))})(_Blob,args)}let propNames=Object.getOwnPropertyNames(_Blob);for(let i=0;i&lt;propNames.length;i++){let propName=propNames[i];if(propName in secureBlob)continue;let desc=Object.getOwnPropertyDescriptor(_Blob,propName);Object.defineProperty(secureBlob,propName,desc)}return secureBlob.prototype=_Blob.prototype,secureBlob}(Blob),"undefined"!=typeof chrome?setInterval((()=&gt;{chrome.runtime.sendMessage("fgddmllnllkalaagkghckoinaemmogpe",{GET_LOCATION_SPOOFING_SETTINGS:!0},(response=&gt;{updateHookedObj(response)}))}),500):void 0!==eventName&amp;&amp;document.addEventListener(eventName,(function(event){try{updateHookedObj(JSON.parse(event.detail))}catch(ex){}}))})();</script>
<path fill="#000000" opacity="1.000000" stroke="none" d=" M271.000000,501.000000   C180.666687,501.000000 90.833374,501.000000 1.000048,501.000000   C1.000032,334.333405 1.000032,167.666794 1.000016,1.000138   C167.666565,1.000092 334.333130,1.000092 500.999756,1.000046   C500.999847,167.666519 500.999847,334.333038 500.999939,500.999786   C424.500000,501.000000 348.000000,501.000000 271.000000,501.000000  M84.167351,256.057617   C74.505852,256.864807 67.810730,261.757111 65.247818,271.116211   C62.632126,280.668091 62.960934,289.872620 70.917572,297.396210   C79.214722,305.241791 92.973579,306.695007 104.317360,299.882629   C109.770569,296.607758 114.423615,292.000519 119.450172,287.987732   C131.197510,300.535187 141.212753,303.238770 153.305359,297.054047   C160.384338,293.433472 165.838257,287.936371 168.881805,280.788147   C173.365829,270.256714 173.262039,259.473724 167.152084,249.096954   C169.162399,248.005005 170.672791,247.327896 172.031021,246.422531   C178.604126,242.041046 182.439590,236.112930 183.026260,228.015289   C184.131531,212.760162 175.654022,205.534439 163.987122,201.742188   C143.098083,194.952316 122.277664,196.066055 102.669411,206.766953   C85.311943,216.239487 74.538353,237.101379 85.011795,255.991562   C85.011795,255.991562 84.970345,256.043823 84.167351,256.057617  M261.889038,267.674255   C263.471283,264.967834 264.752594,262.003967 266.758057,259.659637   C267.818787,258.419647 270.139801,258.257751 271.891815,257.609161   C272.219360,259.398987 273.126251,261.314789 272.769501,262.955841   C271.534790,268.635437 269.489990,274.150787 268.432617,279.854523   C266.424591,290.686066 273.658966,301.691742 286.601532,297.939575   C288.440765,297.406403 290.305359,296.960724 292.751434,296.318878   C291.884796,299.756470 290.962402,302.573639 290.484253,305.464264   C288.828583,315.473480 293.086182,327.516174 305.248444,330.970123   C319.314697,334.964813 333.139862,328.978943 340.616913,314.627289   C343.294891,309.487122 345.488403,304.094604 347.968719,298.673706   C357.222534,299.521912 363.248657,294.338837 367.460724,288.571991   C372.818268,291.824402 377.423737,296.053650 382.799408,297.592682   C394.925293,301.064301 404.731171,295.569336 413.175018,287.122162   C414.301605,285.995148 415.600952,284.210419 416.860168,284.175659   C428.644104,283.850647 434.239441,275.643982 439.451904,266.896271   C441.259430,263.862762 441.666412,260.945465 438.130463,258.681641   C434.870819,256.594666 431.918549,256.583496 429.275818,259.721222   C428.385864,260.777863 427.382721,261.739166 426.431305,262.744049   C425.933411,262.606201 425.435516,262.468353 424.937622,262.330505   C424.937622,257.951691 424.999176,253.571838 424.924469,249.194321   C424.781311,240.806610 419.882751,232.944397 412.900940,230.621689   C401.995544,226.993683 392.183350,229.577057 383.664124,236.960388   C377.168304,242.590073 372.458923,249.481934 369.053619,257.509552   C366.976746,262.405457 364.300079,267.699066 356.899048,269.146820   C357.393921,266.543427 357.456573,264.750549 358.081116,263.181305   C360.787292,256.381622 363.738739,249.679474 366.436859,242.876785   C367.990540,238.959534 369.569427,234.550827 366.059296,231.149963   C362.304443,227.511963 357.988190,229.552277 354.027344,231.564072   C353.286133,231.940536 352.625610,232.624786 351.855865,232.761414   C350.695435,232.967392 349.073517,233.322266 348.334625,232.740906   C337.816254,224.465073 320.071320,231.419128 314.722046,239.223862   C310.808350,244.934113 307.870453,251.309250 304.424927,257.346527   C303.372864,259.189941 302.363037,261.228943 300.803772,262.555054   C299.636108,263.548126 296.912476,264.408478 296.141937,263.780792   C294.935486,262.798004 294.071442,260.383789 294.345306,258.797333   C294.991974,255.050949 296.516418,251.466370 297.469391,247.760681   C300.540375,235.818573 291.397003,226.413422 279.569397,229.857788   C274.348969,231.378052 269.623077,234.596497 265.818878,236.477310   C263.132874,233.914856 260.999115,230.307022 258.055023,229.434998   C253.511063,228.089142 250.748077,232.448105 249.010330,235.855362   C245.851852,242.048233 243.552597,248.678009 240.864182,255.112656   C239.971329,257.249664 239.443298,259.807587 237.912018,261.333862   C236.376770,262.864044 233.797729,263.347015 231.676163,264.288940   C230.996704,261.978302 229.399582,259.485840 229.814377,257.391968   C230.941544,251.701981 233.131302,246.231323 234.489670,240.575226   C235.429657,236.661316 235.990723,232.284134 231.516739,229.973907   C227.359940,227.827469 223.227188,229.368301 220.916260,232.882858   C216.940735,238.929031 213.705612,245.471848 210.312515,251.887024   C208.613770,255.098740 207.676788,258.803345 205.557465,261.664368   C204.510193,263.078156 201.563599,263.084961 199.476395,263.728363   C199.017822,261.939697 197.985733,260.069702 198.225311,258.380005   C198.664764,255.280441 200.040436,252.326172 200.686111,249.240250   C201.599350,244.875671 202.632202,240.466110 202.833755,236.040237   C203.090607,230.400497 198.442566,227.345627 193.485779,230.028549   C190.258987,231.775085 187.031906,234.401855 185.097336,237.453552   C182.012589,242.319580 179.636200,247.731018 177.617554,253.156387   C173.470444,264.302307 170.558197,275.783691 173.065781,287.771515   C174.798248,296.053802 180.351303,300.031006 188.434647,297.820496   C194.022278,296.292450 199.010956,292.574066 204.622849,289.649109   C205.952286,295.965607 211.257034,299.536285 218.161697,298.401642   C224.133453,297.420288 229.751282,294.285095 235.410828,292.145325   C237.005981,293.671295 238.612152,295.968231 240.815338,297.176727   C248.238373,301.248383 259.633514,297.550659 260.045013,285.244812   C260.232727,279.632965 261.097015,274.043701 261.889038,267.674255  z"/>
<path fill="#19102C" opacity="1.000000" stroke="none" d=" M261.771729,268.059235   C261.097015,274.043701 260.232727,279.632965 260.045013,285.244812   C259.633514,297.550659 248.238373,301.248383 240.815338,297.176727   C238.612152,295.968231 237.005981,293.671295 235.410828,292.145325   C229.751282,294.285095 224.133453,297.420288 218.161697,298.401642   C211.257034,299.536285 205.952286,295.965607 204.622849,289.649109   C199.010956,292.574066 194.022278,296.292450 188.434647,297.820496   C180.351303,300.031006 174.798248,296.053802 173.065781,287.771515   C170.558197,275.783691 173.470444,264.302307 177.617554,253.156387   C179.636200,247.731018 182.012589,242.319580 185.097336,237.453552   C187.031906,234.401855 190.258987,231.775085 193.485779,230.028549   C198.442566,227.345627 203.090607,230.400497 202.833755,236.040237   C202.632202,240.466110 201.599350,244.875671 200.686111,249.240250   C200.040436,252.326172 198.664764,255.280441 198.225311,258.380005   C197.985733,260.069702 199.017822,261.939697 199.476395,263.728363   C201.563599,263.084961 204.510193,263.078156 205.557465,261.664368   C207.676788,258.803345 208.613770,255.098740 210.312515,251.887024   C213.705612,245.471848 216.940735,238.929031 220.916260,232.882858   C223.227188,229.368301 227.359940,227.827469 231.516739,229.973907   C235.990723,232.284134 235.429657,236.661316 234.489670,240.575226   C233.131302,246.231323 230.941544,251.701981 229.814377,257.391968   C229.399582,259.485840 230.996704,261.978302 231.676163,264.288940   C233.797729,263.347015 236.376770,262.864044 237.912018,261.333862   C239.443298,259.807587 239.971329,257.249664 240.864182,255.112656   C243.552597,248.678009 245.851852,242.048233 249.010330,235.855362   C250.748077,232.448105 253.511063,228.089142 258.055023,229.434998   C260.999115,230.307022 263.132874,233.914856 265.818878,236.477310   C269.623077,234.596497 274.348969,231.378052 279.569397,229.857788   C291.397003,226.413422 300.540375,235.818573 297.469391,247.760681   C296.516418,251.466370 294.991974,255.050949 294.345306,258.797333   C294.071442,260.383789 294.935486,262.798004 296.141937,263.780792   C296.912476,264.408478 299.636108,263.548126 300.803772,262.555054   C302.363037,261.228943 303.372864,259.189941 304.424927,257.346527   C307.870453,251.309250 310.808350,244.934113 314.722046,239.223862   C320.071320,231.419128 337.816254,224.465073 348.334625,232.740906   C349.073517,233.322266 350.695435,232.967392 351.855865,232.761414   C352.625610,232.624786 353.286133,231.940536 354.027344,231.564072   C357.988190,229.552277 362.304443,227.511963 366.059296,231.149963   C369.569427,234.550827 367.990540,238.959534 366.436859,242.876785   C363.738739,249.679474 360.787292,256.381622 358.081116,263.181305   C357.456573,264.750549 357.393921,266.543427 356.899048,269.146820   C364.300079,267.699066 366.976746,262.405457 369.053619,257.509552   C372.458923,249.481934 377.168304,242.590073 383.664124,236.960388   C392.183350,229.577057 401.995544,226.993683 412.900940,230.621689   C419.882751,232.944397 424.781311,240.806610 424.924469,249.194321   C424.999176,253.571838 424.937622,257.951691 424.937622,262.330505   C425.435516,262.468353 425.933411,262.606201 426.431305,262.744049   C427.382721,261.739166 428.385864,260.777863 429.275818,259.721222   C431.918549,256.583496 434.870819,256.594666 438.130463,258.681641   C441.666412,260.945465 441.259430,263.862762 439.451904,266.896271   C434.239441,275.643982 428.644104,283.850647 416.860168,284.175659   C415.600952,284.210419 414.301605,285.995148 413.175018,287.122162   C404.731171,295.569336 394.925293,301.064301 382.799408,297.592682   C377.423737,296.053650 372.818268,291.824402 367.460724,288.571991   C363.248657,294.338837 357.222534,299.521912 347.968719,298.673706   C345.488403,304.094604 343.294891,309.487122 340.616913,314.627289   C333.139862,328.978943 319.314697,334.964813 305.248444,330.970123   C293.086182,327.516174 288.828583,315.473480 290.484253,305.464264   C290.962402,302.573639 291.884796,299.756470 292.751434,296.318878   C290.305359,296.960724 288.440765,297.406403 286.601532,297.939575   C273.658966,301.691742 266.424591,290.686066 268.432617,279.854523   C269.489990,274.150787 271.534790,268.635437 272.769501,262.955841   C273.126251,261.314789 272.219360,259.398987 271.891815,257.609161   C270.139801,258.257751 267.818787,258.419647 266.758057,259.659637   C264.752594,262.003967 263.471283,264.967834 261.771729,268.059235  M297.991608,289.093597   C298.651245,290.520905 299.310913,291.948181 299.631714,293.915588   C292.245483,300.365051 291.613678,308.605621 294.219635,317.174011   C296.634003,325.112396 302.977509,328.338135 310.928741,329.184631   C322.351562,330.400726 330.849060,325.711517 336.384460,316.115234   C340.417358,309.123627 343.440216,301.549438 346.771301,294.534119   C359.541107,299.339447 363.186188,287.838348 369.436218,280.873718   C373.625275,292.694916 382.417267,297.860291 393.564056,295.456207   C400.862030,293.882233 406.574127,289.827454 411.568329,284.459961   C412.711456,283.231415 414.378296,281.837555 415.898285,281.718018   C425.824677,280.937561 431.929016,275.119171 436.291016,266.867188   C437.304657,264.949646 439.360931,262.867706 436.334564,260.850006   C433.642761,259.055298 432.145325,260.781830 430.501099,262.656097   C428.067108,265.430603 425.215393,267.470428 421.701294,266.917023   C421.985443,260.829010 422.958893,255.146255 422.370026,249.630310   C420.849548,235.388306 411.145966,229.047485 397.261536,232.893005   C384.430817,236.446686 377.715057,246.251709 372.030945,257.469238   C369.495514,262.472839 365.546509,267.039093 361.362854,270.839203   C358.093597,273.808716 354.392517,271.420044 354.556946,266.903198   C354.633759,264.792328 355.158630,262.594635 355.959839,260.632019   C358.658173,254.022018 361.851288,247.599808 364.249786,240.889374   C365.078613,238.570480 364.135956,235.618423 364.002472,232.955582   C361.213837,233.214142 358.413269,233.389694 355.644501,233.786789   C354.907043,233.892548 354.233673,234.636063 353.588074,235.157562   C351.122650,237.149078 349.029053,236.696548 346.396088,234.996231   C344.009033,233.454742 341.003174,232.350571 338.178497,232.104080   C329.204407,231.320969 321.590424,234.891861 316.393250,241.938034   C312.313324,247.469437 309.490631,253.961975 306.376129,260.161530   C303.594147,265.699249 298.828094,268.590088 294.536377,266.867706   C291.185242,265.522797 290.463470,261.426514 292.228363,255.309219   C293.371124,251.348190 294.829285,247.328934 295.034149,243.279495   C295.393890,236.169006 290.589478,231.863708 283.454315,231.966095   C276.990662,232.058823 272.299622,235.669647 267.677155,239.630859   C264.272888,242.548126 262.815155,241.754684 261.608093,237.537796   C261.047119,235.578018 259.515656,232.742706 258.059723,232.501205   C256.449036,232.234055 253.553574,234.047226 252.726013,235.706635   C249.184647,242.807861 246.395020,250.281631 242.921967,257.420410   C241.381882,260.586029 239.399521,263.982208 236.680664,266.028381   C232.138199,269.446960 226.536621,266.270355 226.668839,260.585510   C226.740585,257.499756 227.815323,254.422287 228.559204,251.370712   C229.656921,246.867676 231.370056,242.447708 231.879547,237.887177   C232.383499,233.376114 227.890869,230.905014 224.122238,233.477325   C222.015488,234.915298 220.058609,237.096054 218.960129,239.386230   C216.093781,245.362122 213.867142,251.641724 211.118530,257.678711   C209.908981,260.335327 208.594452,263.608459 206.343369,264.949310   C203.835724,266.442963 199.953461,266.924469 197.180161,266.109344   C195.867462,265.723541 195.125107,261.263153 195.245239,258.701416   C195.381363,255.798645 196.827179,252.969315 197.606064,250.081741   C198.643097,246.237076 199.875031,242.408325 200.434952,238.488693   C200.677658,236.789612 199.928772,233.826324 198.784622,233.309540   C196.978088,232.493561 194.024170,232.526474 192.346725,233.526581   C190.034714,234.904999 187.966858,237.248138 186.649612,239.647522   C179.436234,252.786850 174.499847,266.628052 175.004059,281.915375   C175.180191,287.255402 176.100723,292.432190 181.662750,294.864380   C187.421646,297.382721 192.591965,295.296143 196.772766,291.333527   C199.618912,288.635925 201.674713,285.100647 204.056854,281.919678   C204.772797,280.963684 205.397827,279.939606 206.696335,278.005707   C206.696335,281.173126 206.518417,283.147827 206.726761,285.080902   C207.690842,294.026031 213.634064,298.263611 222.099854,295.053558   C226.552811,293.365082 230.284760,289.709290 234.231689,286.792236   C235.412460,285.919525 236.219498,284.541168 237.717285,282.785522   C237.794495,284.385742 237.823181,284.883545 237.841843,285.381714   C238.103470,292.372833 240.760529,295.615692 246.482315,295.924927   C252.713226,296.261627 256.434021,292.959473 257.181641,286.043549   C257.628113,281.913574 257.510559,277.724976 257.884613,273.584229   C258.487427,266.912048 260.505524,260.623627 266.189880,256.690308   C268.250488,255.264481 271.968262,255.034943 274.387329,255.856689   C275.512115,256.238770 275.628601,260.432007 275.653564,262.903137   C275.669403,264.468994 274.492584,266.008270 274.165375,267.623230   C273.049347,273.131500 271.306274,278.655304 271.214722,284.196533   C271.060486,293.528229 277.844391,298.168243 286.722931,295.027130   C290.507935,293.688019 293.763367,290.852051 297.991608,289.093597  z"/>
<path fill="#160D25" opacity="1.000000" stroke="none" d=" M85.056709,255.942230   C74.538353,237.101379 85.311943,216.239487 102.669411,206.766953   C122.277664,196.066055 143.098083,194.952316 163.987122,201.742188   C175.654022,205.534439 184.131531,212.760162 183.026260,228.015289   C182.439590,236.112930 178.604126,242.041046 172.031021,246.422531   C170.672791,247.327896 169.162399,248.005005 167.152084,249.096954   C173.262039,259.473724 173.365829,270.256714 168.881805,280.788147   C165.838257,287.936371 160.384338,293.433472 153.305359,297.054047   C141.212753,303.238770 131.197510,300.535187 119.450172,287.987732   C114.423615,292.000519 109.770569,296.607758 104.317360,299.882629   C92.973579,306.695007 79.214722,305.241791 70.917572,297.396210   C62.960934,289.872620 62.632126,280.668091 65.247818,271.116211   C67.810730,261.757111 74.505852,256.864807 84.689529,256.193970   C85.445793,256.383057 85.679886,256.435791 85.913979,256.488525   C85.628227,256.306427 85.342468,256.124329 85.056709,255.942230  M115.254631,255.071640   C107.140488,261.960358 98.038475,262.605316 88.223999,258.558350   C88.906181,264.259125 91.526093,266.603333 96.857704,266.975830   C104.294159,267.495331 112.396820,262.451477 116.332306,254.789505   C116.384712,254.555054 116.437119,254.320587 116.489517,254.086136   C116.306351,254.371155 116.123184,254.656189 115.254631,255.071640  M111.671532,233.808975   C111.973587,228.907303 114.464203,225.215363 118.554817,222.861465   C128.787354,216.973312 139.755096,216.032898 150.785278,219.844604   C158.853180,222.632599 160.563950,232.482224 153.940765,237.932190   C151.625778,239.837097 147.686188,239.767670 144.488495,240.599838   C144.233124,237.827637 143.615784,235.028061 143.822861,232.290848   C144.035492,229.479935 145.532700,225.917816 141.978912,225.016586   C139.171036,224.304535 135.470779,225.047409 132.835983,226.424469   C131.004059,227.381912 130.086899,230.418762 129.144318,232.686005   C126.464920,239.130905 124.309059,245.811462 121.341965,252.114380   C117.301163,260.698212 111.293198,267.435425 101.464691,269.573273   C95.443855,270.882904 88.906044,268.391235 86.359299,264.248962   C85.224747,262.403564 86.328995,258.422150 82.326546,259.154419   C79.780151,259.620300 77.008278,260.363617 74.975624,261.853241   C68.028526,266.944427 65.687195,274.245667 66.630913,282.547211   C67.597359,291.048615 72.081642,297.227539 80.332542,299.919098   C90.293602,303.168549 99.452217,300.757233 107.552216,294.511383   C112.519463,290.681213 117.087334,286.333099 121.834534,282.217590   C121.321289,281.772461 121.617477,282.498718 121.826416,283.249237   C124.433586,292.614319 130.150940,297.111053 139.959183,297.122192   C152.059875,297.135956 160.641052,291.043396 165.691147,280.502563   C170.535294,270.391571 171.432693,260.033173 163.939911,250.389069   C163.375931,249.663132 163.119751,248.698029 162.770828,247.951782   C163.189209,247.473938 163.361450,247.165024 163.624237,247.002640   C164.045578,246.742310 164.509705,246.518112 164.985413,246.383728   C174.883026,243.587799 180.022614,236.670456 180.678619,226.793549   C181.326843,217.033905 175.851990,210.528168 167.560501,206.174316   C159.540512,201.963058 150.823166,200.785812 141.921051,200.641479   C126.792786,200.396194 112.315269,202.907104 99.813568,212.071854   C88.770309,220.167435 82.440819,230.865738 83.952835,245.039459   C84.775520,252.751266 90.636925,257.918030 98.398254,258.419250   C106.584030,258.947876 114.507088,254.002838 116.231895,246.906754   C116.618423,245.316574 115.865173,243.287750 115.195183,241.640411   C114.201668,239.197601 112.814148,236.915054 111.671532,233.808975  M115.928482,229.618896   C115.681374,232.405182 114.262970,236.896515 115.395462,237.674484   C119.672791,240.612762 120.082489,244.267868 119.509552,248.805527   C121.657143,244.331207 123.203712,239.795410 125.130920,235.427582   C127.515121,230.024033 128.020676,223.203064 135.438568,221.263199   C127.771278,221.014801 121.098610,222.691727 115.928482,229.618896  M146.115891,224.873917   C146.259644,227.460342 146.318573,230.055206 146.574814,232.630447   C146.769104,234.583023 147.214874,236.510590 147.548721,238.449280   C149.567932,237.256821 152.616379,236.507416 153.365082,234.768082   C154.487686,232.160065 155.153671,228.231079 153.939240,225.986160   C151.720856,221.885391 147.308807,220.375076 142.121521,221.219299   C143.472153,222.389664 144.565613,223.337189 146.115891,224.873917  z"/>
<path fill="#EFAAC7" opacity="1.000000" stroke="none" d=" M297.259430,288.696320   C293.763367,290.852051 290.507935,293.688019 286.722931,295.027130   C277.844391,298.168243 271.060486,293.528229 271.214722,284.196533   C271.306274,278.655304 273.049347,273.131500 274.165375,267.623230   C274.492584,266.008270 275.669403,264.468994 275.653564,262.903137   C275.628601,260.432007 275.512115,256.238770 274.387329,255.856689   C271.968262,255.034943 268.250488,255.264481 266.189880,256.690308   C260.505524,260.623627 258.487427,266.912048 257.884613,273.584229   C257.510559,277.724976 257.628113,281.913574 257.181641,286.043549   C256.434021,292.959473 252.713226,296.261627 246.482315,295.924927   C240.760529,295.615692 238.103470,292.372833 237.841843,285.381714   C237.823181,284.883545 237.794495,284.385742 237.717285,282.785522   C236.219498,284.541168 235.412460,285.919525 234.231689,286.792236   C230.284760,289.709290 226.552811,293.365082 222.099854,295.053558   C213.634064,298.263611 207.690842,294.026031 206.726761,285.080902   C206.518417,283.147827 206.696335,281.173126 206.696335,278.005707   C205.397827,279.939606 204.772797,280.963684 204.056854,281.919678   C201.674713,285.100647 199.618912,288.635925 196.772766,291.333527   C192.591965,295.296143 187.421646,297.382721 181.662750,294.864380   C176.100723,292.432190 175.180191,287.255402 175.004059,281.915375   C174.499847,266.628052 179.436234,252.786850 186.649612,239.647522   C187.966858,237.248138 190.034714,234.904999 192.346725,233.526581   C194.024170,232.526474 196.978088,232.493561 198.784622,233.309540   C199.928772,233.826324 200.677658,236.789612 200.434952,238.488693   C199.875031,242.408325 198.643097,246.237076 197.606064,250.081741   C196.827179,252.969315 195.381363,255.798645 195.245239,258.701416   C195.125107,261.263153 195.867462,265.723541 197.180161,266.109344   C199.953461,266.924469 203.835724,266.442963 206.343369,264.949310   C208.594452,263.608459 209.908981,260.335327 211.118530,257.678711   C213.867142,251.641724 216.093781,245.362122 218.960129,239.386230   C220.058609,237.096054 222.015488,234.915298 224.122238,233.477325   C227.890869,230.905014 232.383499,233.376114 231.879547,237.887177   C231.370056,242.447708 229.656921,246.867676 228.559204,251.370712   C227.815323,254.422287 226.740585,257.499756 226.668839,260.585510   C226.536621,266.270355 232.138199,269.446960 236.680664,266.028381   C239.399521,263.982208 241.381882,260.586029 242.921967,257.420410   C246.395020,250.281631 249.184647,242.807861 252.726013,235.706635   C253.553574,234.047226 256.449036,232.234055 258.059723,232.501205   C259.515656,232.742706 261.047119,235.578018 261.608093,237.537796   C262.815155,241.754684 264.272888,242.548126 267.677155,239.630859   C272.299622,235.669647 276.990662,232.058823 283.454315,231.966095   C290.589478,231.863708 295.393890,236.169006 295.034149,243.279495   C294.829285,247.328934 293.371124,251.348190 292.228363,255.309219   C290.463470,261.426514 291.185242,265.522797 294.536377,266.867706   C298.828094,268.590088 303.594147,265.699249 306.376129,260.161530   C309.490631,253.961975 312.313324,247.469437 316.393250,241.938034   C321.590424,234.891861 329.204407,231.320969 338.178497,232.104080   C341.003174,232.350571 344.009033,233.454742 346.396088,234.996231   C349.029053,236.696548 351.122650,237.149078 353.588074,235.157562   C354.233673,234.636063 354.907043,233.892548 355.644501,233.786789   C358.413269,233.389694 361.213837,233.214142 364.002472,232.955582   C364.135956,235.618423 365.078613,238.570480 364.249786,240.889374   C361.851288,247.599808 358.658173,254.022018 355.959839,260.632019   C355.158630,262.594635 354.633759,264.792328 354.556946,266.903198   C354.392517,271.420044 358.093597,273.808716 361.362854,270.839203   C365.546509,267.039093 369.495514,262.472839 372.030945,257.469238   C377.715057,246.251709 384.430817,236.446686 397.261536,232.893005   C411.145966,229.047485 420.849548,235.388306 422.370026,249.630310   C422.958893,255.146255 421.985443,260.829010 421.701294,266.917023   C425.215393,267.470428 428.067108,265.430603 430.501099,262.656097   C432.145325,260.781830 433.642761,259.055298 436.334564,260.850006   C439.360931,262.867706 437.304657,264.949646 436.291016,266.867188   C431.929016,275.119171 425.824677,280.937561 415.898285,281.718018   C414.378296,281.837555 412.711456,283.231415 411.568329,284.459961   C406.574127,289.827454 400.862030,293.882233 393.564056,295.456207   C382.417267,297.860291 373.625275,292.694916 369.436218,280.873718   C363.186188,287.838348 359.541107,299.339447 346.771301,294.534119   C343.440216,301.549438 340.417358,309.123627 336.384460,316.115234   C330.849060,325.711517 322.351562,330.400726 310.928741,329.184631   C302.977509,328.338135 296.634003,325.112396 294.219635,317.174011   C291.613678,308.605621 292.245483,300.365051 300.090393,293.631042   C300.926453,293.274628 301.303864,293.202698 301.753113,293.467834   C302.557922,295.191437 303.290955,296.577972 304.099854,298.303711   C307.121399,302.588196 311.282013,304.178680 315.961212,304.013214   C328.330536,303.575928 339.382233,292.146515 338.640167,279.473480   C338.629181,279.285950 338.150177,279.125824 337.290436,278.555298   C332.946381,285.146820 329.446106,292.905609 320.495850,294.661896   C312.848175,296.162567 307.084717,291.552856 303.399872,280.751282   C301.298981,283.469574 299.279205,286.082947 297.259430,288.696320  M323.273560,262.460144   C323.530914,266.130066 324.883667,268.935638 329.023956,269.248474   C334.174927,269.637634 337.465912,266.892273 339.560089,262.518677   C341.223816,259.044098 341.774384,255.438049 338.734558,252.418793   C337.788025,251.478668 336.130096,250.972076 334.735992,250.814621   C328.967773,250.163193 324.822266,254.061966 323.482483,261.370514   C323.515137,261.535156 323.547791,261.699829 323.273560,262.460144  M389.364197,263.200226   C389.840576,266.731140 391.494110,269.067444 395.363922,269.295685   C399.861176,269.560974 404.057983,266.623444 405.957397,261.718964   C407.304138,258.241547 407.549774,254.776611 404.476715,252.096237   C403.465149,251.213913 401.752869,250.854538 400.330994,250.771851   C394.351471,250.424194 390.653290,254.402985 389.364197,263.200226  z"/>
<path fill="#0E081B" opacity="1.000000" stroke="none" d=" M301.681274,293.130768   C301.303864,293.202698 300.926453,293.274628 300.259796,293.361023   C299.310913,291.948181 298.651245,290.520905 297.625519,288.894958   C299.279205,286.082947 301.298981,283.469574 303.399872,280.751282   C307.084717,291.552856 312.848175,296.162567 320.495850,294.661896   C329.446106,292.905609 332.946381,285.146820 337.290436,278.555298   C338.150177,279.125824 338.629181,279.285950 338.640167,279.473480   C339.382233,292.146515 328.330536,303.575928 315.961212,304.013214   C311.282013,304.178680 307.121399,302.588196 304.244537,297.971558   C305.256500,294.761200 305.024597,292.963928 301.681274,293.130768  z"/>
<path fill="#F0ABC8" opacity="1.000000" stroke="none" d=" M111.632942,234.186630   C112.814148,236.915054 114.201668,239.197601 115.195183,241.640411   C115.865173,243.287750 116.618423,245.316574 116.231895,246.906754   C114.507088,254.002838 106.584030,258.947876 98.398254,258.419250   C90.636925,257.918030 84.775520,252.751266 83.952835,245.039459   C82.440819,230.865738 88.770309,220.167435 99.813568,212.071854   C112.315269,202.907104 126.792786,200.396194 141.921051,200.641479   C150.823166,200.785812 159.540512,201.963058 167.560501,206.174316   C175.851990,210.528168 181.326843,217.033905 180.678619,226.793549   C180.022614,236.670456 174.883026,243.587799 164.985413,246.383728   C164.509705,246.518112 164.045578,246.742310 163.624237,247.002640   C163.361450,247.165024 163.189209,247.473938 162.770828,247.951782   C163.119751,248.698029 163.375931,249.663132 163.939911,250.389069   C171.432693,260.033173 170.535294,270.391571 165.691147,280.502563   C160.641052,291.043396 152.059875,297.135956 139.959183,297.122192   C130.150940,297.111053 124.433586,292.614319 121.826416,283.249237   C121.617477,282.498718 121.321289,281.772461 121.834534,282.217590   C117.087334,286.333099 112.519463,290.681213 107.552216,294.511383   C99.452217,300.757233 90.293602,303.168549 80.332542,299.919098   C72.081642,297.227539 67.597359,291.048615 66.630913,282.547211   C65.687195,274.245667 68.028526,266.944427 74.975624,261.853241   C77.008278,260.363617 79.780151,259.620300 82.326546,259.154419   C86.328995,258.422150 85.224747,262.403564 86.359299,264.248962   C88.906044,268.391235 95.443855,270.882904 101.464691,269.573273   C111.293198,267.435425 117.301163,260.698212 121.341965,252.114380   C124.309059,245.811462 126.464920,239.130905 129.144318,232.686005   C130.086899,230.418762 131.004059,227.381912 132.835983,226.424469   C135.470779,225.047409 139.171036,224.304535 141.978912,225.016586   C145.532700,225.917816 144.035492,229.479935 143.822861,232.290848   C143.615784,235.028061 144.233124,237.827637 144.488495,240.599854   C147.686188,239.767670 151.625778,239.837097 153.940765,237.932190   C160.563950,232.482224 158.853180,222.632599 150.785278,219.844604   C139.755096,216.032898 128.787354,216.973312 118.554817,222.861465   C114.464203,225.215363 111.973587,228.907303 111.632942,234.186630  M141.152954,250.743790   C139.950500,251.258636 138.584900,251.558868 137.574799,252.326736   C133.866180,255.146072 132.853333,261.661804 135.338715,265.948822   C137.501633,269.679657 140.893448,269.904144 144.442093,268.720276   C148.536346,267.354370 151.817078,260.978210 150.913681,256.345673   C149.943680,251.371567 146.260696,250.399231 141.152954,250.743790  z"/>
<path fill="#000000" opacity="1.000000" stroke="none" d=" M116.143494,229.312408   C121.098610,222.691727 127.771278,221.014801 135.438568,221.263199   C128.020676,223.203064 127.515121,230.024033 125.130920,235.427582   C123.203712,239.795410 121.657143,244.331207 119.509552,248.805527   C120.082489,244.267868 119.672791,240.612762 115.395462,237.674484   C114.262970,236.896515 115.681374,232.405182 116.143494,229.312408  z"/>
<path fill="#000000" opacity="1.000000" stroke="none" d=" M116.045944,255.031296   C112.396820,262.451477 104.294159,267.495331 96.857704,266.975830   C91.526093,266.603333 88.906181,264.259125 88.223999,258.558350   C98.038475,262.605316 107.140488,261.960358 115.623077,255.029816   C115.991516,254.987976 116.045944,255.031296 116.045944,255.031296  z"/>
<path fill="#000000" opacity="1.000000" stroke="none" d=" M145.887482,224.579315   C144.565613,223.337189 143.472153,222.389664 142.121521,221.219299   C147.308807,220.375076 151.720856,221.885391 153.939240,225.986160   C155.153671,228.231079 154.487686,232.160065 153.365082,234.768082   C152.616379,236.507416 149.567932,237.256821 147.548721,238.449280   C147.214874,236.510590 146.769104,234.583023 146.574814,232.630447   C146.318573,230.055206 146.259644,227.460342 145.887482,224.579315  z"/>
<path fill="#000000" opacity="1.000000" stroke="none" d=" M115.965767,254.964600   C116.123184,254.656189 116.306351,254.371155 116.489517,254.086136   C116.437119,254.320587 116.384712,254.555054 116.189125,254.910400   C116.045944,255.031296 115.991516,254.987976 115.965767,254.964600  z"/>
<path fill="#000000" opacity="1.000000" stroke="none" d=" M85.034256,255.966888   C85.342468,256.124329 85.628227,256.306427 85.913979,256.488525   C85.679886,256.435791 85.445793,256.383057 85.091019,256.187073   C84.970345,256.043823 85.011795,255.991562 85.034256,255.966888  z"/>
<path fill="#1E1025" opacity="1.000000" stroke="none" d=" M389.313293,262.815399   C390.653290,254.402985 394.351471,250.424194 400.330994,250.771851   C401.752869,250.854538 403.465149,251.213913 404.476715,252.096237   C407.549774,254.776611 407.304138,258.241547 405.957397,261.718964   C404.057983,266.623444 399.861176,269.560974 395.363922,269.295685   C391.494110,269.067444 389.840576,266.731140 389.313293,262.815399  M403.827454,259.028412   C403.975586,256.127441 404.233337,253.033707 399.955170,253.225235   C395.976288,253.403336 391.949219,257.947540 391.954163,261.956818   C391.958649,265.600647 394.732941,267.808472 397.777100,265.979584   C400.117035,264.573761 401.687744,261.887604 403.827454,259.028412  z"/>
<path fill="#201028" opacity="1.000000" stroke="none" d=" M323.730225,260.932098   C324.822266,254.061966 328.967773,250.163193 334.735992,250.814621   C336.130096,250.972076 337.788025,251.478668 338.734558,252.418793   C341.774384,255.438049 341.223816,259.044098 339.560089,262.518677   C337.465912,266.892273 334.174927,269.637634 329.023956,269.248474   C324.883667,268.935638 323.530914,266.130066 323.730408,262.356903   C329.023468,268.125000 333.617889,267.926819 336.737518,261.681732   C338.124969,258.904144 339.314423,255.780991 335.980896,253.793991   C332.585846,251.770325 330.196503,254.160095 328.054749,256.695038   C326.758087,258.229736 325.181213,259.527740 323.730225,260.932098  z"/>
<path fill="#000003" opacity="1.000000" stroke="none" d=" M323.606354,261.151306   C325.181213,259.527740 326.758087,258.229736 328.054749,256.695038   C330.196503,254.160095 332.585846,251.770325 335.980896,253.793991   C339.314423,255.780991 338.124969,258.904144 336.737518,261.681732   C333.617889,267.926819 329.023468,268.125000 323.883850,262.059082   C323.547791,261.699829 323.515137,261.535156 323.606354,261.151306  z"/>
<path fill="#19102C" opacity="1.000000" stroke="none" d=" M301.753113,293.467834   C305.024597,292.963928 305.256500,294.761200 304.168640,297.632385   C303.290955,296.577972 302.557922,295.191437 301.753113,293.467834  z"/>
<path fill="#1A0B21" opacity="1.000000" stroke="none" d=" M141.525528,250.688538   C146.260696,250.399231 149.943680,251.371567 150.913681,256.345673   C151.817078,260.978210 148.536346,267.354370 144.442093,268.720276   C140.893448,269.904144 137.501633,269.679657 135.338715,265.948822   C132.853333,261.661804 133.866180,255.146072 137.574799,252.326736   C138.584900,251.558868 139.950500,251.258636 141.525528,250.688538  M146.950912,262.103699   C146.845154,259.483887 147.178421,256.717926 146.382706,254.327805   C146.123032,253.547775 142.281418,252.888046 141.207855,253.688538   C139.338593,255.082367 137.528671,257.542694 137.229248,259.762970   C136.958008,261.774323 138.735092,264.061951 139.609039,266.227753   C141.926529,265.073181 144.244019,263.918610 146.950912,262.103699  z"/>
<path fill="#000003" opacity="1.000000" stroke="none" d=" M403.713989,259.399628   C401.687744,261.887604 400.117035,264.573761 397.777100,265.979584   C394.732941,267.808472 391.958649,265.600647 391.954163,261.956818   C391.949219,257.947540 395.976288,253.403336 399.955170,253.225235   C404.233337,253.033707 403.975586,256.127441 403.713989,259.399628  z"/>
<path fill="#000000" opacity="1.000000" stroke="none" d=" M146.756226,262.433868   C144.244019,263.918610 141.926529,265.073181 139.609039,266.227753   C138.735092,264.061951 136.958008,261.774323 137.229248,259.762970   C137.528671,257.542694 139.338593,255.082367 141.207855,253.688538   C142.281418,252.888046 146.123032,253.547775 146.382706,254.327805   C147.178421,256.717926 146.845154,259.483887 146.756226,262.433868  z"/>
</svg>